# Blender v2.82 (sub 7) OBJ File: ''
# www.blender.org
mtllib dado.mtl
o Cube.002
v -1.000000 1.000000 -1.000000
v 1.000000 1.000000 1.000000
v 1.000000 1.000000 -1.000000
v -1.000000 -1.000000 1.000000
v 1.000000 -1.000000 1.000000
v -1.000000 1.000000 1.000000
v -1.000000 -1.000000 -1.000000
v 1.000000 -1.000000 -1.000000
vt 0.493986 0.971496
vt 0.264726 0.697715
vt 0.492264 0.695627
vt 0.247948 0.604514
vt 0.017699 0.377724
vt 0.246218 0.375995
vt 0.995436 0.651414
vt 0.754543 0.342910
vt 0.993626 0.340557
vt 0.260900 0.274111
vt 0.495166 0.026011
vt 0.262660 0.024119
vt 0.498197 0.610077
vt 0.264114 0.379511
vt 0.496439 0.377753
vt 0.742038 0.623104
vt 0.507955 0.375004
vt 0.740279 0.373111
vt 0.266449 0.973584
vt 0.019428 0.606244
vt 0.756352 0.653767
vt 0.493406 0.276004
vt 0.265872 0.611836
vt 0.509714 0.624996
vn 0.0000 1.0000 0.0000
vn 0.0000 -0.0000 1.0000
vn -1.0000 -0.0000 0.0000
vn 0.0000 -1.0000 -0.0000
vn 1.0000 -0.0000 0.0000
vn 0.0000 0.0000 -1.0000
usemtl dado
s 1
f 1/1/1 2/2/1 3/3/1
f 2/4/2 4/5/2 5/6/2
f 6/7/3 7/8/3 4/9/3
f 8/10/4 4/11/4 7/12/4
f 3/13/5 5/14/5 8/15/5
f 1/16/6 8/17/6 7/18/6
f 1/1/1 6/19/1 2/2/1
f 2/4/2 6/20/2 4/5/2
f 6/7/3 1/21/3 7/8/3
f 8/10/4 5/22/4 4/11/4
f 3/13/5 2/23/5 5/14/5
f 1/16/6 3/24/6 8/17/6
